<svg width="435" height="56" viewBox="0 0 435 56" fill="none" xmlns="http://www.w3.org/2000/svg">
<rect width="154" height="56" fill="#222226"/>
<rect x="154" width="281" height="56" fill="#BD620D"/>
<path d="M178.297 36V18.5455H188.831V20.4205H180.411V26.3182H188.286V28.1932H180.411V34.125H188.968V36H178.297ZM192.368 36V22.9091H194.311V24.9545H194.482C194.755 24.2557 195.195 23.7131 195.803 23.3267C196.411 22.9347 197.141 22.7386 197.993 22.7386C198.857 22.7386 199.576 22.9347 200.15 23.3267C200.729 23.7131 201.181 24.2557 201.505 24.9545H201.641C201.976 24.2784 202.479 23.7415 203.15 23.3438C203.82 22.9403 204.624 22.7386 205.561 22.7386C206.732 22.7386 207.689 23.1051 208.434 23.8381C209.178 24.5653 209.55 25.6989 209.55 27.2386V36H207.539V27.2386C207.539 26.2727 207.275 25.5824 206.746 25.1676C206.218 24.7528 205.596 24.5455 204.88 24.5455C203.959 24.5455 203.246 24.8239 202.74 25.3807C202.235 25.9318 201.982 26.6307 201.982 27.4773V36H199.936V27.0341C199.936 26.2898 199.695 25.6903 199.212 25.2358C198.729 24.7756 198.107 24.5455 197.346 24.5455C196.823 24.5455 196.334 24.6847 195.88 24.9631C195.431 25.2415 195.067 25.6278 194.789 26.1222C194.516 26.6108 194.38 27.1761 194.38 27.8182V36H192.368ZM224.921 36.2727C223.83 36.2727 222.867 35.9972 222.032 35.446C221.196 34.8892 220.543 34.1051 220.071 33.0938C219.6 32.0767 219.364 30.875 219.364 29.4886C219.364 28.1136 219.6 26.9205 220.071 25.9091C220.543 24.8977 221.199 24.1165 222.04 23.5653C222.881 23.0142 223.853 22.7386 224.955 22.7386C225.807 22.7386 226.48 22.8807 226.975 23.1648C227.475 23.4432 227.855 23.7614 228.117 24.1193C228.384 24.4716 228.591 24.7614 228.739 24.9886H228.909V18.5455H230.921V36H228.978V33.9886H228.739C228.591 34.2273 228.381 34.5284 228.108 34.892C227.836 35.25 227.446 35.571 226.941 35.8551C226.435 36.1335 225.762 36.2727 224.921 36.2727ZM225.194 34.4659C226 34.4659 226.682 34.2557 227.239 33.8352C227.796 33.4091 228.219 32.821 228.509 32.071C228.799 31.3153 228.944 30.4432 228.944 29.4545C228.944 28.4773 228.801 27.6222 228.517 26.8892C228.233 26.1506 227.813 25.5767 227.256 25.1676C226.699 24.7528 226.012 24.5455 225.194 24.5455C224.341 24.5455 223.631 24.7642 223.063 25.2017C222.5 25.6335 222.077 26.2216 221.793 26.9659C221.515 27.7045 221.375 28.5341 221.375 29.4545C221.375 30.3864 221.517 31.233 221.801 31.9943C222.091 32.75 222.517 33.3523 223.08 33.8011C223.648 34.2443 224.353 34.4659 225.194 34.4659ZM240.373 36.2727C239.111 36.2727 238.023 35.9943 237.108 35.4375C236.199 34.875 235.498 34.0909 235.003 33.0852C234.515 32.0739 234.27 30.8977 234.27 29.5568C234.27 28.2159 234.515 27.0341 235.003 26.0114C235.498 24.983 236.185 24.1818 237.066 23.608C237.952 23.0284 238.986 22.7386 240.168 22.7386C240.85 22.7386 241.523 22.8523 242.188 23.0795C242.853 23.3068 243.458 23.6761 244.003 24.1875C244.549 24.6932 244.983 25.3636 245.307 26.1989C245.631 27.0341 245.793 28.0625 245.793 29.2841V30.1364H235.702V28.3977H243.748C243.748 27.6591 243.6 27 243.304 26.4205C243.015 25.8409 242.6 25.3835 242.06 25.0483C241.526 24.7131 240.895 24.5455 240.168 24.5455C239.367 24.5455 238.674 24.7443 238.088 25.142C237.509 25.5341 237.063 26.0455 236.75 26.6761C236.438 27.3068 236.282 27.983 236.282 28.7045V29.8636C236.282 30.8523 236.452 31.6903 236.793 32.3778C237.14 33.0597 237.62 33.5795 238.233 33.9375C238.847 34.2898 239.56 34.4659 240.373 34.4659C240.901 34.4659 241.378 34.392 241.804 34.2443C242.236 34.0909 242.608 33.8636 242.921 33.5625C243.233 33.2557 243.475 32.875 243.645 32.4205L245.588 32.9659C245.384 33.625 245.04 34.2045 244.557 34.7045C244.074 35.1989 243.478 35.5852 242.767 35.8636C242.057 36.1364 241.259 36.2727 240.373 36.2727ZM258.125 25.8409L256.319 26.3523C256.205 26.0511 256.037 25.7585 255.816 25.4744C255.6 25.1847 255.304 24.946 254.929 24.7585C254.554 24.571 254.074 24.4773 253.489 24.4773C252.688 24.4773 252.02 24.6619 251.486 25.0312C250.958 25.3949 250.694 25.858 250.694 26.4205C250.694 26.9205 250.875 27.3153 251.239 27.6051C251.603 27.8949 252.171 28.1364 252.944 28.3295L254.887 28.8068C256.057 29.0909 256.929 29.5256 257.503 30.1108C258.077 30.6903 258.364 31.4375 258.364 32.3523C258.364 33.1023 258.148 33.7727 257.716 34.3636C257.29 34.9545 256.694 35.4205 255.926 35.7614C255.159 36.1023 254.267 36.2727 253.25 36.2727C251.915 36.2727 250.81 35.983 249.935 35.4034C249.06 34.8239 248.506 33.9773 248.273 32.8636L250.182 32.3864C250.364 33.0909 250.708 33.6193 251.213 33.9716C251.725 34.3239 252.392 34.5 253.216 34.5C254.154 34.5 254.898 34.3011 255.449 33.9034C256.006 33.5 256.284 33.017 256.284 32.4545C256.284 32 256.125 31.6193 255.807 31.3125C255.489 31 255 30.767 254.341 30.6136L252.159 30.1023C250.961 29.8182 250.08 29.3778 249.517 28.7812C248.961 28.179 248.682 27.4261 248.682 26.5227C248.682 25.7841 248.89 25.1307 249.304 24.5625C249.725 23.9943 250.296 23.5483 251.017 23.2244C251.745 22.9006 252.569 22.7386 253.489 22.7386C254.784 22.7386 255.801 23.0227 256.54 23.5909C257.284 24.1591 257.813 24.9091 258.125 25.8409ZM266.88 36.2727C265.619 36.2727 264.531 35.9943 263.616 35.4375C262.707 34.875 262.005 34.0909 261.511 33.0852C261.022 32.0739 260.778 30.8977 260.778 29.5568C260.778 28.2159 261.022 27.0341 261.511 26.0114C262.005 24.983 262.693 24.1818 263.574 23.608C264.46 23.0284 265.494 22.7386 266.676 22.7386C267.358 22.7386 268.031 22.8523 268.696 23.0795C269.36 23.3068 269.966 23.6761 270.511 24.1875C271.056 24.6932 271.491 25.3636 271.815 26.1989C272.139 27.0341 272.301 28.0625 272.301 29.2841V30.1364H262.21V28.3977H270.255C270.255 27.6591 270.108 27 269.812 26.4205C269.522 25.8409 269.108 25.3835 268.568 25.0483C268.034 24.7131 267.403 24.5455 266.676 24.5455C265.875 24.5455 265.181 24.7443 264.596 25.142C264.017 25.5341 263.571 26.0455 263.258 26.6761C262.946 27.3068 262.789 27.983 262.789 28.7045V29.8636C262.789 30.8523 262.96 31.6903 263.301 32.3778C263.647 33.0597 264.127 33.5795 264.741 33.9375C265.355 34.2898 266.068 34.4659 266.88 34.4659C267.409 34.4659 267.886 34.392 268.312 34.2443C268.744 34.0909 269.116 33.8636 269.429 33.5625C269.741 33.2557 269.983 32.875 270.153 32.4205L272.096 32.9659C271.892 33.625 271.548 34.2045 271.065 34.7045C270.582 35.1989 269.985 35.5852 269.275 35.8636C268.565 36.1364 267.767 36.2727 266.88 36.2727ZM277.372 28.125V36H275.36V22.9091H277.304V24.9545H277.474C277.781 24.2898 278.247 23.7557 278.872 23.3523C279.497 22.9432 280.304 22.7386 281.292 22.7386C282.179 22.7386 282.954 22.9205 283.619 23.2841C284.284 23.642 284.801 24.1875 285.17 24.9205C285.539 25.6477 285.724 26.5682 285.724 27.6818V36H283.713V27.8182C283.713 26.7898 283.446 25.9886 282.912 25.4148C282.377 24.8352 281.645 24.5455 280.713 24.5455C280.071 24.5455 279.497 24.6847 278.991 24.9631C278.491 25.2415 278.096 25.6477 277.806 26.1818C277.517 26.7159 277.372 27.3636 277.372 28.125ZM299.635 22.9091L294.794 36H292.749L287.908 22.9091H290.09L293.703 33.3409H293.84L297.453 22.9091H299.635ZM307.14 36.2727C305.958 36.2727 304.921 35.9915 304.029 35.429C303.142 34.8665 302.449 34.0795 301.949 33.0682C301.455 32.0568 301.208 30.875 301.208 29.5227C301.208 28.1591 301.455 26.9687 301.949 25.9517C302.449 24.9347 303.142 24.1449 304.029 23.5824C304.921 23.0199 305.958 22.7386 307.14 22.7386C308.321 22.7386 309.355 23.0199 310.242 23.5824C311.134 24.1449 311.827 24.9347 312.321 25.9517C312.821 26.9687 313.071 28.1591 313.071 29.5227C313.071 30.875 312.821 32.0568 312.321 33.0682C311.827 34.0795 311.134 34.8665 310.242 35.429C309.355 35.9915 308.321 36.2727 307.14 36.2727ZM307.14 34.4659C308.037 34.4659 308.776 34.2358 309.355 33.7756C309.935 33.3153 310.364 32.7102 310.642 31.9602C310.921 31.2102 311.06 30.3977 311.06 29.5227C311.06 28.6477 310.921 27.8324 310.642 27.0767C310.364 26.321 309.935 25.7102 309.355 25.2443C308.776 24.7784 308.037 24.5455 307.14 24.5455C306.242 24.5455 305.503 24.7784 304.924 25.2443C304.344 25.7102 303.915 26.321 303.637 27.0767C303.358 27.8324 303.219 28.6477 303.219 29.5227C303.219 30.3977 303.358 31.2102 303.637 31.9602C303.915 32.7102 304.344 33.3153 304.924 33.7756C305.503 34.2358 306.242 34.4659 307.14 34.4659ZM318.153 18.5455V36H316.142V18.5455H318.153ZM332.542 22.9091L327.701 36H325.655L320.814 22.9091H322.996L326.61 33.3409H326.746L330.36 22.9091H332.542ZM335.196 36V22.9091H337.208V36H335.196ZM336.219 20.7273C335.827 20.7273 335.489 20.5938 335.205 20.3267C334.926 20.0597 334.787 19.7386 334.787 19.3636C334.787 18.9886 334.926 18.6676 335.205 18.4006C335.489 18.1335 335.827 18 336.219 18C336.611 18 336.946 18.1335 337.225 18.4006C337.509 18.6676 337.651 18.9886 337.651 19.3636C337.651 19.7386 337.509 20.0597 337.225 20.3267C336.946 20.5938 336.611 20.7273 336.219 20.7273ZM340.892 36V22.9091H342.835V24.9545H343.005C343.278 24.2557 343.718 23.7131 344.326 23.3267C344.934 22.9347 345.664 22.7386 346.517 22.7386C347.38 22.7386 348.099 22.9347 348.673 23.3267C349.252 23.7131 349.704 24.2557 350.028 24.9545H350.164C350.5 24.2784 351.002 23.7415 351.673 23.3438C352.343 22.9403 353.147 22.7386 354.085 22.7386C355.255 22.7386 356.213 23.1051 356.957 23.8381C357.701 24.5653 358.074 25.6989 358.074 27.2386V36H356.062V27.2386C356.062 26.2727 355.798 25.5824 355.27 25.1676C354.741 24.7528 354.119 24.5455 353.403 24.5455C352.483 24.5455 351.77 24.8239 351.264 25.3807C350.758 25.9318 350.505 26.6307 350.505 27.4773V36H348.46V27.0341C348.46 26.2898 348.218 25.6903 347.735 25.2358C347.252 24.7756 346.63 24.5455 345.869 24.5455C345.346 24.5455 344.858 24.6847 344.403 24.9631C343.954 25.2415 343.591 25.6278 343.312 26.1222C343.039 26.6108 342.903 27.1761 342.903 27.8182V36H340.892ZM367.24 36.2727C365.978 36.2727 364.89 35.9943 363.975 35.4375C363.066 34.875 362.365 34.0909 361.87 33.0852C361.382 32.0739 361.137 30.8977 361.137 29.5568C361.137 28.2159 361.382 27.0341 361.87 26.0114C362.365 24.983 363.052 24.1818 363.933 23.608C364.819 23.0284 365.853 22.7386 367.035 22.7386C367.717 22.7386 368.39 22.8523 369.055 23.0795C369.72 23.3068 370.325 23.6761 370.87 24.1875C371.416 24.6932 371.85 25.3636 372.174 26.1989C372.498 27.0341 372.66 28.0625 372.66 29.2841V30.1364H362.569V28.3977H370.615C370.615 27.6591 370.467 27 370.172 26.4205C369.882 25.8409 369.467 25.3835 368.927 25.0483C368.393 24.7131 367.762 24.5455 367.035 24.5455C366.234 24.5455 365.541 24.7443 364.956 25.142C364.376 25.5341 363.93 26.0455 363.618 26.6761C363.305 27.3068 363.149 27.983 363.149 28.7045V29.8636C363.149 30.8523 363.319 31.6903 363.66 32.3778C364.007 33.0597 364.487 33.5795 365.1 33.9375C365.714 34.2898 366.427 34.4659 367.24 34.4659C367.768 34.4659 368.245 34.392 368.672 34.2443C369.103 34.0909 369.475 33.8636 369.788 33.5625C370.1 33.2557 370.342 32.875 370.512 32.4205L372.456 32.9659C372.251 33.625 371.907 34.2045 371.424 34.7045C370.941 35.1989 370.345 35.5852 369.635 35.8636C368.924 36.1364 368.126 36.2727 367.24 36.2727ZM377.731 28.125V36H375.72V22.9091H377.663V24.9545H377.833C378.14 24.2898 378.606 23.7557 379.231 23.3523C379.856 22.9432 380.663 22.7386 381.652 22.7386C382.538 22.7386 383.314 22.9205 383.978 23.2841C384.643 23.642 385.16 24.1875 385.529 24.9205C385.899 25.6477 386.083 26.5682 386.083 27.6818V36H384.072V27.8182C384.072 26.7898 383.805 25.9886 383.271 25.4148C382.737 24.8352 382.004 24.5455 381.072 24.5455C380.43 24.5455 379.856 24.6847 379.35 24.9631C378.85 25.2415 378.456 25.6477 378.166 26.1818C377.876 26.7159 377.731 27.3636 377.731 28.125ZM395.452 22.9091V24.6136H388.668V22.9091H395.452ZM390.645 19.7727H392.657V32.25C392.657 32.8182 392.739 33.2443 392.904 33.5284C393.074 33.8068 393.29 33.9943 393.551 34.0909C393.819 34.1818 394.1 34.2273 394.395 34.2273C394.617 34.2273 394.799 34.2159 394.941 34.1932C395.083 34.1648 395.196 34.142 395.282 34.125L395.691 35.9318C395.554 35.983 395.364 36.0341 395.12 36.0852C394.875 36.142 394.566 36.1705 394.191 36.1705C393.623 36.1705 393.066 36.0483 392.52 35.804C391.98 35.5597 391.532 35.1875 391.174 34.6875C390.821 34.1875 390.645 33.5568 390.645 32.7955V19.7727ZM403.655 36.2727C402.473 36.2727 401.436 35.9915 400.544 35.429C399.658 34.8665 398.965 34.0795 398.465 33.0682C397.971 32.0568 397.723 30.875 397.723 29.5227C397.723 28.1591 397.971 26.9687 398.465 25.9517C398.965 24.9347 399.658 24.1449 400.544 23.5824C401.436 23.0199 402.473 22.7386 403.655 22.7386C404.837 22.7386 405.871 23.0199 406.757 23.5824C407.65 24.1449 408.343 24.9347 408.837 25.9517C409.337 26.9687 409.587 28.1591 409.587 29.5227C409.587 30.875 409.337 32.0568 408.837 33.0682C408.343 34.0795 407.65 34.8665 406.757 35.429C405.871 35.9915 404.837 36.2727 403.655 36.2727ZM403.655 34.4659C404.553 34.4659 405.292 34.2358 405.871 33.7756C406.451 33.3153 406.88 32.7102 407.158 31.9602C407.436 31.2102 407.576 30.3977 407.576 29.5227C407.576 28.6477 407.436 27.8324 407.158 27.0767C406.88 26.321 406.451 25.7102 405.871 25.2443C405.292 24.7784 404.553 24.5455 403.655 24.5455C402.757 24.5455 402.019 24.7784 401.439 25.2443C400.86 25.7102 400.431 26.321 400.152 27.0767C399.874 27.8324 399.735 28.6477 399.735 29.5227C399.735 30.3977 399.874 31.2102 400.152 31.9602C400.431 32.7102 400.86 33.3153 401.439 33.7756C402.019 34.2358 402.757 34.4659 403.655 34.4659Z" fill="white"/>
<path d="M52.2841 22.9091C52.1818 22.0455 51.767 21.375 51.0398 20.8977C50.3125 20.4205 49.4205 20.1818 48.3636 20.1818C47.5909 20.1818 46.9148 20.3068 46.3352 20.5568C45.7614 20.8068 45.3125 21.1506 44.9886 21.5881C44.6705 22.0256 44.5114 22.5227 44.5114 23.0795C44.5114 23.5455 44.6222 23.946 44.8438 24.2812C45.071 24.6108 45.3608 24.8864 45.7131 25.108C46.0653 25.3239 46.4347 25.5028 46.821 25.6449C47.2074 25.7812 47.5625 25.892 47.8864 25.9773L49.6591 26.4545C50.1136 26.5739 50.6193 26.7386 51.1761 26.9489C51.7386 27.1591 52.2756 27.446 52.7869 27.8097C53.304 28.1676 53.7301 28.6278 54.0653 29.1903C54.4006 29.7528 54.5682 30.4432 54.5682 31.2614C54.5682 32.2045 54.321 33.0568 53.8267 33.8182C53.3381 34.5795 52.6222 35.1847 51.679 35.6335C50.7415 36.0824 49.6023 36.3068 48.2614 36.3068C47.0114 36.3068 45.929 36.1051 45.0142 35.7017C44.1051 35.2983 43.3892 34.7358 42.8665 34.0142C42.3494 33.2926 42.0568 32.4545 41.9886 31.5H44.1705C44.2273 32.1591 44.4489 32.7045 44.8352 33.1364C45.2273 33.5625 45.7216 33.8807 46.3182 34.0909C46.9205 34.2955 47.5682 34.3977 48.2614 34.3977C49.0682 34.3977 49.7926 34.267 50.4347 34.0057C51.0767 33.7386 51.5852 33.3693 51.9602 32.8977C52.3352 32.4205 52.5227 31.8636 52.5227 31.2273C52.5227 30.6477 52.3608 30.1761 52.0369 29.8125C51.7131 29.4489 51.2869 29.1534 50.7585 28.9261C50.2301 28.6989 49.6591 28.5 49.0455 28.3295L46.8977 27.7159C45.5341 27.3239 44.4545 26.7642 43.6591 26.0369C42.8636 25.3097 42.4659 24.358 42.4659 23.1818C42.4659 22.2045 42.7301 21.3523 43.2585 20.625C43.7926 19.892 44.5085 19.3239 45.4062 18.9205C46.3097 18.5114 47.3182 18.3068 48.4318 18.3068C49.5568 18.3068 50.5568 18.5085 51.4318 18.9119C52.3068 19.3097 53 19.8551 53.5114 20.5483C54.0284 21.2415 54.3011 22.0284 54.3295 22.9091H52.2841ZM63.4638 22.9091V24.6136H56.6797V22.9091H63.4638ZM58.657 19.7727H60.6683V32.25C60.6683 32.8182 60.7507 33.2443 60.9155 33.5284C61.0859 33.8068 61.3018 33.9943 61.5632 34.0909C61.8303 34.1818 62.1115 34.2273 62.407 34.2273C62.6286 34.2273 62.8104 34.2159 62.9524 34.1932C63.0945 34.1648 63.2081 34.142 63.2933 34.125L63.7024 35.9318C63.5661 35.983 63.3757 36.0341 63.1314 36.0852C62.8871 36.142 62.5774 36.1705 62.2024 36.1705C61.6342 36.1705 61.0774 36.0483 60.532 35.804C59.9922 35.5597 59.5433 35.1875 59.1854 34.6875C58.8331 34.1875 58.657 33.5568 58.657 32.7955V19.7727ZM70.3416 36.3068C69.5121 36.3068 68.7592 36.1506 68.0831 35.8381C67.407 35.5199 66.87 35.0625 66.4723 34.4659C66.0746 33.8636 65.8757 33.1364 65.8757 32.2841C65.8757 31.5341 66.0234 30.9261 66.3189 30.4602C66.6143 29.9886 67.0092 29.6193 67.5036 29.3523C67.9979 29.0852 68.5433 28.8864 69.1399 28.7557C69.7422 28.6193 70.3473 28.5114 70.9553 28.4318C71.7507 28.3295 72.3956 28.2528 72.8899 28.2017C73.3899 28.1449 73.7536 28.0511 73.9808 27.9205C74.2138 27.7898 74.3303 27.5625 74.3303 27.2386V27.1705C74.3303 26.3295 74.1001 25.6761 73.6399 25.2102C73.1854 24.7443 72.495 24.5114 71.5689 24.5114C70.6087 24.5114 69.8558 24.7216 69.3104 25.142C68.7649 25.5625 68.3814 26.0114 68.1598 26.4886L66.2507 25.8068C66.5916 25.0114 67.0462 24.392 67.6143 23.9489C68.1882 23.5 68.8132 23.1875 69.4893 23.0114C70.1712 22.8295 70.8416 22.7386 71.5007 22.7386C71.9212 22.7386 72.4041 22.7898 72.9496 22.892C73.5007 22.9886 74.032 23.1903 74.5433 23.4972C75.0604 23.804 75.4893 24.267 75.8303 24.8864C76.1712 25.5057 76.3416 26.3352 76.3416 27.375V36H74.3303V34.2273H74.228C74.0916 34.5114 73.8643 34.8153 73.5462 35.1392C73.228 35.4631 72.8047 35.7386 72.2763 35.9659C71.7479 36.1932 71.103 36.3068 70.3416 36.3068ZM70.6484 34.5C71.4439 34.5 72.1143 34.3438 72.6598 34.0312C73.2109 33.7188 73.6257 33.3153 73.9041 32.821C74.1882 32.3267 74.3303 31.8068 74.3303 31.2614V29.4205C74.245 29.5227 74.0575 29.6165 73.7678 29.7017C73.4837 29.7812 73.1541 29.8523 72.7791 29.9148C72.4098 29.9716 72.049 30.0227 71.6967 30.0682C71.3501 30.108 71.0689 30.142 70.853 30.1705C70.3303 30.2386 69.8416 30.3494 69.3871 30.5028C68.9382 30.6506 68.5746 30.875 68.2962 31.1761C68.0234 31.4716 67.8871 31.875 67.8871 32.3864C67.8871 33.0852 68.1456 33.6136 68.6626 33.9716C69.1854 34.3239 69.8473 34.5 70.6484 34.5ZM85.706 22.9091V24.6136H78.9219V22.9091H85.706ZM80.8991 19.7727H82.9105V32.25C82.9105 32.8182 82.9929 33.2443 83.1577 33.5284C83.3281 33.8068 83.544 33.9943 83.8054 34.0909C84.0724 34.1818 84.3537 34.2273 84.6491 34.2273C84.8707 34.2273 85.0526 34.2159 85.1946 34.1932C85.3366 34.1648 85.4503 34.142 85.5355 34.125L85.9446 35.9318C85.8082 35.983 85.6179 36.0341 85.3736 36.0852C85.1293 36.142 84.8196 36.1705 84.4446 36.1705C83.8764 36.1705 83.3196 36.0483 82.7741 35.804C82.2344 35.5597 81.7855 35.1875 81.4276 34.6875C81.0753 34.1875 80.8991 33.5568 80.8991 32.7955V19.7727ZM96.9815 30.6477V22.9091H98.9929V36H96.9815V33.7841H96.8452C96.5384 34.4489 96.0611 35.0142 95.4134 35.4801C94.7656 35.9403 93.9474 36.1705 92.9588 36.1705C92.1406 36.1705 91.4134 35.9915 90.777 35.6335C90.1406 35.2699 89.6406 34.7244 89.277 33.9972C88.9134 33.2642 88.7315 32.3409 88.7315 31.2273V22.9091H90.7429V31.0909C90.7429 32.0455 91.0099 32.8068 91.544 33.375C92.0838 33.9432 92.7713 34.2273 93.6065 34.2273C94.1065 34.2273 94.6151 34.0994 95.1321 33.8438C95.6548 33.5881 96.0923 33.196 96.4446 32.6676C96.8026 32.1392 96.9815 31.4659 96.9815 30.6477ZM111.95 25.8409L110.143 26.3523C110.029 26.0511 109.862 25.7585 109.64 25.4744C109.424 25.1847 109.129 24.946 108.754 24.7585C108.379 24.571 107.898 24.4773 107.313 24.4773C106.512 24.4773 105.844 24.6619 105.31 25.0312C104.782 25.3949 104.518 25.858 104.518 26.4205C104.518 26.9205 104.7 27.3153 105.063 27.6051C105.427 27.8949 105.995 28.1364 106.768 28.3295L108.711 28.8068C109.881 29.0909 110.754 29.5256 111.327 30.1108C111.901 30.6903 112.188 31.4375 112.188 32.3523C112.188 33.1023 111.972 33.7727 111.54 34.3636C111.114 34.9545 110.518 35.4205 109.751 35.7614C108.984 36.1023 108.092 36.2727 107.075 36.2727C105.739 36.2727 104.634 35.983 103.759 35.4034C102.884 34.8239 102.33 33.9773 102.097 32.8636L104.006 32.3864C104.188 33.0909 104.532 33.6193 105.038 33.9716C105.549 34.3239 106.217 34.5 107.04 34.5C107.978 34.5 108.722 34.3011 109.273 33.9034C109.83 33.5 110.109 33.017 110.109 32.4545C110.109 32 109.95 31.6193 109.631 31.3125C109.313 31 108.825 30.767 108.165 30.6136L105.984 30.1023C104.785 29.8182 103.904 29.3778 103.342 28.7812C102.785 28.179 102.506 27.4261 102.506 26.5227C102.506 25.7841 102.714 25.1307 103.129 24.5625C103.549 23.9943 104.12 23.5483 104.842 23.2244C105.569 22.9006 106.393 22.7386 107.313 22.7386C108.609 22.7386 109.626 23.0227 110.364 23.5909C111.109 24.1591 111.637 24.9091 111.95 25.8409Z" fill="white"/>
</svg>
