<svg width="367" height="56" viewBox="0 0 367 56" fill="none" xmlns="http://www.w3.org/2000/svg">
<rect width="154" height="56" fill="#3F3F43"/>
<rect x="154" width="213" height="56" fill="#308E04"/>
<path d="M205.379 36V18.5455H215.845V20.4205H207.493V26.3182H215.061V28.1932H207.493V36H205.379ZM219.192 36V22.9091H221.204V36H219.192ZM220.215 20.7273C219.823 20.7273 219.485 20.5938 219.201 20.3267C218.923 20.0597 218.783 19.7386 218.783 19.3636C218.783 18.9886 218.923 18.6676 219.201 18.4006C219.485 18.1335 219.823 18 220.215 18C220.607 18 220.942 18.1335 221.221 18.4006C221.505 18.6676 221.647 18.9886 221.647 19.3636C221.647 19.7386 221.505 20.0597 221.221 20.3267C220.942 20.5938 220.607 20.7273 220.215 20.7273ZM226.899 28.125V36H224.888V22.9091H226.831V24.9545H227.001C227.308 24.2898 227.774 23.7557 228.399 23.3523C229.024 22.9432 229.831 22.7386 230.82 22.7386C231.706 22.7386 232.482 22.9205 233.146 23.2841C233.811 23.642 234.328 24.1875 234.697 24.9205C235.067 25.6477 235.251 26.5682 235.251 27.6818V36H233.24V27.8182C233.24 26.7898 232.973 25.9886 232.439 25.4148C231.905 24.8352 231.172 24.5455 230.24 24.5455C229.598 24.5455 229.024 24.6847 228.518 24.9631C228.018 25.2415 227.624 25.6477 227.334 26.1818C227.044 26.7159 226.899 27.3636 226.899 28.125ZM242.779 36.3068C241.95 36.3068 241.197 36.1506 240.521 35.8381C239.844 35.5199 239.308 35.0625 238.91 34.4659C238.512 33.8636 238.313 33.1364 238.313 32.2841C238.313 31.5341 238.461 30.9261 238.756 30.4602C239.052 29.9886 239.447 29.6193 239.941 29.3523C240.435 29.0852 240.981 28.8864 241.577 28.7557C242.18 28.6193 242.785 28.5114 243.393 28.4318C244.188 28.3295 244.833 28.2528 245.327 28.2017C245.827 28.1449 246.191 28.0511 246.418 27.9205C246.651 27.7898 246.768 27.5625 246.768 27.2386V27.1705C246.768 26.3295 246.538 25.6761 246.077 25.2102C245.623 24.7443 244.933 24.5114 244.006 24.5114C243.046 24.5114 242.293 24.7216 241.748 25.142C241.202 25.5625 240.819 26.0114 240.597 26.4886L238.688 25.8068C239.029 25.0114 239.484 24.392 240.052 23.9489C240.626 23.5 241.251 23.1875 241.927 23.0114C242.609 22.8295 243.279 22.7386 243.938 22.7386C244.359 22.7386 244.842 22.7898 245.387 22.892C245.938 22.9886 246.469 23.1903 246.981 23.4972C247.498 23.804 247.927 24.267 248.268 24.8864C248.609 25.5057 248.779 26.3352 248.779 27.375V36H246.768V34.2273H246.665C246.529 34.5114 246.302 34.8153 245.984 35.1392C245.665 35.4631 245.242 35.7386 244.714 35.9659C244.185 36.1932 243.54 36.3068 242.779 36.3068ZM243.086 34.5C243.881 34.5 244.552 34.3438 245.097 34.0312C245.648 33.7188 246.063 33.3153 246.342 32.821C246.626 32.3267 246.768 31.8068 246.768 31.2614V29.4205C246.683 29.5227 246.495 29.6165 246.205 29.7017C245.921 29.7812 245.592 29.8523 245.217 29.9148C244.847 29.9716 244.487 30.0227 244.134 30.0682C243.788 30.108 243.506 30.142 243.29 30.1705C242.768 30.2386 242.279 30.3494 241.825 30.5028C241.376 30.6506 241.012 30.875 240.734 31.1761C240.461 31.4716 240.325 31.875 240.325 32.3864C240.325 33.0852 240.583 33.6136 241.1 33.9716C241.623 34.3239 242.285 34.5 243.086 34.5ZM254.462 18.5455V36H252.45V18.5455H254.462ZM258.146 36V22.9091H260.157V36H258.146ZM259.168 20.7273C258.776 20.7273 258.438 20.5938 258.154 20.3267C257.876 20.0597 257.737 19.7386 257.737 19.3636C257.737 18.9886 257.876 18.6676 258.154 18.4006C258.438 18.1335 258.776 18 259.168 18C259.56 18 259.896 18.1335 260.174 18.4006C260.458 18.6676 260.6 18.9886 260.6 19.3636C260.6 19.7386 260.458 20.0597 260.174 20.3267C259.896 20.5938 259.56 20.7273 259.168 20.7273ZM263.466 36V34.4659L270.898 24.9205V24.7841H263.705V22.9091H273.489V24.5114L266.261 33.9886V34.125H273.727V36H263.466ZM280.678 36.3068C279.848 36.3068 279.095 36.1506 278.419 35.8381C277.743 35.5199 277.206 35.0625 276.808 34.4659C276.411 33.8636 276.212 33.1364 276.212 32.2841C276.212 31.5341 276.359 30.9261 276.655 30.4602C276.95 29.9886 277.345 29.6193 277.839 29.3523C278.334 29.0852 278.879 28.8864 279.476 28.7557C280.078 28.6193 280.683 28.5114 281.291 28.4318C282.087 28.3295 282.732 28.2528 283.226 28.2017C283.726 28.1449 284.089 28.0511 284.317 27.9205C284.55 27.7898 284.666 27.5625 284.666 27.2386V27.1705C284.666 26.3295 284.436 25.6761 283.976 25.2102C283.521 24.7443 282.831 24.5114 281.905 24.5114C280.945 24.5114 280.192 24.7216 279.646 25.142C279.101 25.5625 278.717 26.0114 278.496 26.4886L276.587 25.8068C276.928 25.0114 277.382 24.392 277.95 23.9489C278.524 23.5 279.149 23.1875 279.825 23.0114C280.507 22.8295 281.178 22.7386 281.837 22.7386C282.257 22.7386 282.74 22.7898 283.286 22.892C283.837 22.9886 284.368 23.1903 284.879 23.4972C285.396 23.804 285.825 24.267 286.166 24.8864C286.507 25.5057 286.678 26.3352 286.678 27.375V36H284.666V34.2273H284.564C284.428 34.5114 284.2 34.8153 283.882 35.1392C283.564 35.4631 283.141 35.7386 282.612 35.9659C282.084 36.1932 281.439 36.3068 280.678 36.3068ZM280.984 34.5C281.78 34.5 282.45 34.3438 282.996 34.0312C283.547 33.7188 283.962 33.3153 284.24 32.821C284.524 32.3267 284.666 31.8068 284.666 31.2614V29.4205C284.581 29.5227 284.393 29.6165 284.104 29.7017C283.82 29.7812 283.49 29.8523 283.115 29.9148C282.746 29.9716 282.385 30.0227 282.033 30.0682C281.686 30.108 281.405 30.142 281.189 30.1705C280.666 30.2386 280.178 30.3494 279.723 30.5028C279.274 30.6506 278.911 30.875 278.632 31.1761C278.359 31.4716 278.223 31.875 278.223 32.3864C278.223 33.0852 278.482 33.6136 278.999 33.9716C279.521 34.3239 280.183 34.5 280.984 34.5ZM295.292 36.2727C294.201 36.2727 293.238 35.9972 292.403 35.446C291.567 34.8892 290.914 34.1051 290.442 33.0938C289.971 32.0767 289.735 30.875 289.735 29.4886C289.735 28.1136 289.971 26.9205 290.442 25.9091C290.914 24.8977 291.57 24.1165 292.411 23.5653C293.252 23.0142 294.224 22.7386 295.326 22.7386C296.178 22.7386 296.852 22.8807 297.346 23.1648C297.846 23.4432 298.227 23.7614 298.488 24.1193C298.755 24.4716 298.962 24.7614 299.11 24.9886H299.281V18.5455H301.292V36H299.349V33.9886H299.11C298.962 34.2273 298.752 34.5284 298.479 34.892C298.207 35.25 297.817 35.571 297.312 35.8551C296.806 36.1335 296.133 36.2727 295.292 36.2727ZM295.565 34.4659C296.371 34.4659 297.053 34.2557 297.61 33.8352C298.167 33.4091 298.59 32.821 298.88 32.071C299.17 31.3153 299.315 30.4432 299.315 29.4545C299.315 28.4773 299.173 27.6222 298.888 26.8892C298.604 26.1506 298.184 25.5767 297.627 25.1676C297.07 24.7528 296.383 24.5455 295.565 24.5455C294.712 24.5455 294.002 24.7642 293.434 25.2017C292.871 25.6335 292.448 26.2216 292.164 26.9659C291.886 27.7045 291.746 28.5341 291.746 29.4545C291.746 30.3864 291.888 31.233 292.173 31.9943C292.462 32.75 292.888 33.3523 293.451 33.8011C294.019 34.2443 294.724 34.4659 295.565 34.4659ZM310.573 36.2727C309.391 36.2727 308.354 35.9915 307.462 35.429C306.576 34.8665 305.883 34.0795 305.383 33.0682C304.888 32.0568 304.641 30.875 304.641 29.5227C304.641 28.1591 304.888 26.9687 305.383 25.9517C305.883 24.9347 306.576 24.1449 307.462 23.5824C308.354 23.0199 309.391 22.7386 310.573 22.7386C311.755 22.7386 312.789 23.0199 313.675 23.5824C314.567 24.1449 315.261 24.9347 315.755 25.9517C316.255 26.9687 316.505 28.1591 316.505 29.5227C316.505 30.875 316.255 32.0568 315.755 33.0682C315.261 34.0795 314.567 34.8665 313.675 35.429C312.789 35.9915 311.755 36.2727 310.573 36.2727ZM310.573 34.4659C311.471 34.4659 312.21 34.2358 312.789 33.7756C313.369 33.3153 313.798 32.7102 314.076 31.9602C314.354 31.2102 314.494 30.3977 314.494 29.5227C314.494 28.6477 314.354 27.8324 314.076 27.0767C313.798 26.321 313.369 25.7102 312.789 25.2443C312.21 24.7784 311.471 24.5455 310.573 24.5455C309.675 24.5455 308.937 24.7784 308.357 25.2443C307.778 25.7102 307.349 26.321 307.07 27.0767C306.792 27.8324 306.653 28.6477 306.653 29.5227C306.653 30.3977 306.792 31.2102 307.07 31.9602C307.349 32.7102 307.778 33.3153 308.357 33.7756C308.937 34.2358 309.675 34.4659 310.573 34.4659Z" fill="white"/>
<path d="M52.2841 22.9091C52.1818 22.0455 51.767 21.375 51.0398 20.8977C50.3125 20.4205 49.4205 20.1818 48.3636 20.1818C47.5909 20.1818 46.9148 20.3068 46.3352 20.5568C45.7614 20.8068 45.3125 21.1506 44.9886 21.5881C44.6705 22.0256 44.5114 22.5227 44.5114 23.0795C44.5114 23.5455 44.6222 23.946 44.8438 24.2812C45.071 24.6108 45.3608 24.8864 45.7131 25.108C46.0653 25.3239 46.4347 25.5028 46.821 25.6449C47.2074 25.7812 47.5625 25.892 47.8864 25.9773L49.6591 26.4545C50.1136 26.5739 50.6193 26.7386 51.1761 26.9489C51.7386 27.1591 52.2756 27.446 52.7869 27.8097C53.304 28.1676 53.7301 28.6278 54.0653 29.1903C54.4006 29.7528 54.5682 30.4432 54.5682 31.2614C54.5682 32.2045 54.321 33.0568 53.8267 33.8182C53.3381 34.5795 52.6222 35.1847 51.679 35.6335C50.7415 36.0824 49.6023 36.3068 48.2614 36.3068C47.0114 36.3068 45.929 36.1051 45.0142 35.7017C44.1051 35.2983 43.3892 34.7358 42.8665 34.0142C42.3494 33.2926 42.0568 32.4545 41.9886 31.5H44.1705C44.2273 32.1591 44.4489 32.7045 44.8352 33.1364C45.2273 33.5625 45.7216 33.8807 46.3182 34.0909C46.9205 34.2955 47.5682 34.3977 48.2614 34.3977C49.0682 34.3977 49.7926 34.267 50.4347 34.0057C51.0767 33.7386 51.5852 33.3693 51.9602 32.8977C52.3352 32.4205 52.5227 31.8636 52.5227 31.2273C52.5227 30.6477 52.3608 30.1761 52.0369 29.8125C51.7131 29.4489 51.2869 29.1534 50.7585 28.9261C50.2301 28.6989 49.6591 28.5 49.0455 28.3295L46.8977 27.7159C45.5341 27.3239 44.4545 26.7642 43.6591 26.0369C42.8636 25.3097 42.4659 24.358 42.4659 23.1818C42.4659 22.2045 42.7301 21.3523 43.2585 20.625C43.7926 19.892 44.5085 19.3239 45.4062 18.9205C46.3097 18.5114 47.3182 18.3068 48.4318 18.3068C49.5568 18.3068 50.5568 18.5085 51.4318 18.9119C52.3068 19.3097 53 19.8551 53.5114 20.5483C54.0284 21.2415 54.3011 22.0284 54.3295 22.9091H52.2841ZM63.4638 22.9091V24.6136H56.6797V22.9091H63.4638ZM58.657 19.7727H60.6683V32.25C60.6683 32.8182 60.7507 33.2443 60.9155 33.5284C61.0859 33.8068 61.3018 33.9943 61.5632 34.0909C61.8303 34.1818 62.1115 34.2273 62.407 34.2273C62.6286 34.2273 62.8104 34.2159 62.9524 34.1932C63.0945 34.1648 63.2081 34.142 63.2933 34.125L63.7024 35.9318C63.5661 35.983 63.3757 36.0341 63.1314 36.0852C62.8871 36.142 62.5774 36.1705 62.2024 36.1705C61.6342 36.1705 61.0774 36.0483 60.532 35.804C59.9922 35.5597 59.5433 35.1875 59.1854 34.6875C58.8331 34.1875 58.657 33.5568 58.657 32.7955V19.7727ZM70.3416 36.3068C69.5121 36.3068 68.7592 36.1506 68.0831 35.8381C67.407 35.5199 66.87 35.0625 66.4723 34.4659C66.0746 33.8636 65.8757 33.1364 65.8757 32.2841C65.8757 31.5341 66.0234 30.9261 66.3189 30.4602C66.6143 29.9886 67.0092 29.6193 67.5036 29.3523C67.9979 29.0852 68.5433 28.8864 69.1399 28.7557C69.7422 28.6193 70.3473 28.5114 70.9553 28.4318C71.7507 28.3295 72.3956 28.2528 72.8899 28.2017C73.3899 28.1449 73.7536 28.0511 73.9808 27.9205C74.2138 27.7898 74.3303 27.5625 74.3303 27.2386V27.1705C74.3303 26.3295 74.1001 25.6761 73.6399 25.2102C73.1854 24.7443 72.495 24.5114 71.5689 24.5114C70.6087 24.5114 69.8558 24.7216 69.3104 25.142C68.7649 25.5625 68.3814 26.0114 68.1598 26.4886L66.2507 25.8068C66.5916 25.0114 67.0462 24.392 67.6143 23.9489C68.1882 23.5 68.8132 23.1875 69.4893 23.0114C70.1712 22.8295 70.8416 22.7386 71.5007 22.7386C71.9212 22.7386 72.4041 22.7898 72.9496 22.892C73.5007 22.9886 74.032 23.1903 74.5433 23.4972C75.0604 23.804 75.4893 24.267 75.8303 24.8864C76.1712 25.5057 76.3416 26.3352 76.3416 27.375V36H74.3303V34.2273H74.228C74.0916 34.5114 73.8643 34.8153 73.5462 35.1392C73.228 35.4631 72.8047 35.7386 72.2763 35.9659C71.7479 36.1932 71.103 36.3068 70.3416 36.3068ZM70.6484 34.5C71.4439 34.5 72.1143 34.3438 72.6598 34.0312C73.2109 33.7188 73.6257 33.3153 73.9041 32.821C74.1882 32.3267 74.3303 31.8068 74.3303 31.2614V29.4205C74.245 29.5227 74.0575 29.6165 73.7678 29.7017C73.4837 29.7812 73.1541 29.8523 72.7791 29.9148C72.4098 29.9716 72.049 30.0227 71.6967 30.0682C71.3501 30.108 71.0689 30.142 70.853 30.1705C70.3303 30.2386 69.8416 30.3494 69.3871 30.5028C68.9382 30.6506 68.5746 30.875 68.2962 31.1761C68.0234 31.4716 67.8871 31.875 67.8871 32.3864C67.8871 33.0852 68.1456 33.6136 68.6626 33.9716C69.1854 34.3239 69.8473 34.5 70.6484 34.5ZM85.706 22.9091V24.6136H78.9219V22.9091H85.706ZM80.8991 19.7727H82.9105V32.25C82.9105 32.8182 82.9929 33.2443 83.1577 33.5284C83.3281 33.8068 83.544 33.9943 83.8054 34.0909C84.0724 34.1818 84.3537 34.2273 84.6491 34.2273C84.8707 34.2273 85.0526 34.2159 85.1946 34.1932C85.3366 34.1648 85.4503 34.142 85.5355 34.125L85.9446 35.9318C85.8082 35.983 85.6179 36.0341 85.3736 36.0852C85.1293 36.142 84.8196 36.1705 84.4446 36.1705C83.8764 36.1705 83.3196 36.0483 82.7741 35.804C82.2344 35.5597 81.7855 35.1875 81.4276 34.6875C81.0753 34.1875 80.8991 33.5568 80.8991 32.7955V19.7727ZM96.9815 30.6477V22.9091H98.9929V36H96.9815V33.7841H96.8452C96.5384 34.4489 96.0611 35.0142 95.4134 35.4801C94.7656 35.9403 93.9474 36.1705 92.9588 36.1705C92.1406 36.1705 91.4134 35.9915 90.777 35.6335C90.1406 35.2699 89.6406 34.7244 89.277 33.9972C88.9134 33.2642 88.7315 32.3409 88.7315 31.2273V22.9091H90.7429V31.0909C90.7429 32.0455 91.0099 32.8068 91.544 33.375C92.0838 33.9432 92.7713 34.2273 93.6065 34.2273C94.1065 34.2273 94.6151 34.0994 95.1321 33.8438C95.6548 33.5881 96.0923 33.196 96.4446 32.6676C96.8026 32.1392 96.9815 31.4659 96.9815 30.6477ZM111.95 25.8409L110.143 26.3523C110.029 26.0511 109.862 25.7585 109.64 25.4744C109.424 25.1847 109.129 24.946 108.754 24.7585C108.379 24.571 107.898 24.4773 107.313 24.4773C106.512 24.4773 105.844 24.6619 105.31 25.0312C104.782 25.3949 104.518 25.858 104.518 26.4205C104.518 26.9205 104.7 27.3153 105.063 27.6051C105.427 27.8949 105.995 28.1364 106.768 28.3295L108.711 28.8068C109.881 29.0909 110.754 29.5256 111.327 30.1108C111.901 30.6903 112.188 31.4375 112.188 32.3523C112.188 33.1023 111.972 33.7727 111.54 34.3636C111.114 34.9545 110.518 35.4205 109.751 35.7614C108.984 36.1023 108.092 36.2727 107.075 36.2727C105.739 36.2727 104.634 35.983 103.759 35.4034C102.884 34.8239 102.33 33.9773 102.097 32.8636L104.006 32.3864C104.188 33.0909 104.532 33.6193 105.038 33.9716C105.549 34.3239 106.217 34.5 107.04 34.5C107.978 34.5 108.722 34.3011 109.273 33.9034C109.83 33.5 110.109 33.017 110.109 32.4545C110.109 32 109.95 31.6193 109.631 31.3125C109.313 31 108.825 30.767 108.165 30.6136L105.984 30.1023C104.785 29.8182 103.904 29.3778 103.342 28.7812C102.785 28.179 102.506 27.4261 102.506 26.5227C102.506 25.7841 102.714 25.1307 103.129 24.5625C103.549 23.9943 104.12 23.5483 104.842 23.2244C105.569 22.9006 106.393 22.7386 107.313 22.7386C108.609 22.7386 109.626 23.0227 110.364 23.5909C111.109 24.1591 111.637 24.9091 111.95 25.8409Z" fill="white"/>
</svg>
